<?xml version="1.0" encoding="utf-8"?>
<!-- Generator: Adobe Illustrator 28.0.0, SVG Export Plug-In . SVG Version: 6.00 Build 0)  -->
<svg version="1.1" id="Laag_1" xmlns="http://www.w3.org/2000/svg" xmlns:xlink="http://www.w3.org/1999/xlink" x="0px" y="0px"
	 viewBox="0 0 536 373.4" style="enable-background:new 0 0 536 373.4;" xml:space="preserve">
<style type="text/css">
	.st0{fill:url(#SVGID_1_);}
	.st1{fill:url(#SVGID_00000075865137864025237650000004356919849875521439_);}
	.st2{fill:url(#SVGID_00000093898124402641664850000001732658656477530786_);}
	.st3{fill:url(#SVGID_00000164481131730238792420000014502092645548573859_);}
	.st4{fill:url(#SVGID_00000155123272393531586090000011008315685308566703_);}
	.st5{fill:url(#SVGID_00000096041843730606347780000005652036496888078469_);}
	.st6{fill:url(#SVGID_00000018210641728426300540000009350026070384952492_);}
	.st7{fill:url(#SVGID_00000151545042986596734000000017231456417245327795_);}
</style>
<g>
	<g>
		<linearGradient id="SVGID_1_" gradientUnits="userSpaceOnUse" x1="175.5967" y1="261.6719" x2="521.4943" y2="261.6719">
			<stop  offset="0" style="stop-color:#00A386"/>
			<stop  offset="6.023580e-02" style="stop-color:#009C8A"/>
			<stop  offset="0.3181" style="stop-color:#007D91"/>
			<stop  offset="0.5502" style="stop-color:#00628E"/>
			<stop  offset="0.7484" style="stop-color:#104D89"/>
			<stop  offset="0.9047" style="stop-color:#1F3F84"/>
			<stop  offset="1" style="stop-color:#223A83"/>
		</linearGradient>
		<path class="st0" d="M349.9,365.8h-30.5l-14.4-54h-0.6c13.4-11.3,23.7-26.3,29.7-43.6h74c17.6,0,31.9-15.1,31.9-33.6
			c0-18.5-14.3-33.6-31.9-33.6l-159.1,0c-17.6,0-31.9,15.1-31.9,33.6c0,4.1,0.8,8.1,2.1,11.8h-42.6c-0.6-3.8-0.9-7.8-0.9-11.8
			c0-42.5,32.9-77.2,73.4-77.2l159.1,0c30.6,0,56.9,19.8,67.9,47.8l45.5,13.4v31.9L476,264l-4.3,1.3l-1.6-2.7v3.2l1.6-0.5l2.2,3.7
			l24.4,40.9l-20.5,23.6L430,308.3h0c-1.1,0.4-2.3,0.7-3.5,1.1l-7.4,49.9l-30.3,3.8l-20.1-51.3h-4.4L349.9,365.8z"/>
		
			<linearGradient id="SVGID_00000091003932891038354030000014056190109083746731_" gradientUnits="userSpaceOnUse" x1="13.074" y1="234.6812" x2="318.9853" y2="234.6812">
			<stop  offset="0" style="stop-color:#00A386"/>
			<stop  offset="6.023580e-02" style="stop-color:#009C8A"/>
			<stop  offset="0.3181" style="stop-color:#007D91"/>
			<stop  offset="0.5502" style="stop-color:#00628E"/>
			<stop  offset="0.7484" style="stop-color:#104D89"/>
			<stop  offset="0.9047" style="stop-color:#1F3F84"/>
			<stop  offset="1" style="stop-color:#223A83"/>
		</linearGradient>
		<path style="fill:url(#SVGID_00000091003932891038354030000014056190109083746731_);" d="M245.6,311.8l-159.1,0
			c-40.5,0-73.4-34.6-73.4-77.1c0-42.5,32.9-77.2,73.4-77.2l103.7,0c-13.4,11.3-23.7,26.3-29.7,43.6l-74,0
			c-17.6,0-31.9,15.1-31.9,33.6c0,18.5,14.3,33.6,31.9,33.6l159.1,0c17.6,0,31.9-15.1,31.9-33.6c0-4.2-0.8-8.1-2.1-11.8h42.7
			c0.6,3.8,0.9,7.8,0.9,11.8C319,277.2,286.1,311.8,245.6,311.8z"/>
		
			<linearGradient id="SVGID_00000085212592861054104490000005516597968051229088_" gradientUnits="userSpaceOnUse" x1="470.0015" y1="264.1417" x2="471.6416" y2="264.1417">
			<stop  offset="0" style="stop-color:#00A386"/>
			<stop  offset="6.023580e-02" style="stop-color:#009C8A"/>
			<stop  offset="0.3181" style="stop-color:#007D91"/>
			<stop  offset="0.5502" style="stop-color:#00628E"/>
			<stop  offset="0.7484" style="stop-color:#104D89"/>
			<stop  offset="0.9047" style="stop-color:#1F3F84"/>
			<stop  offset="1" style="stop-color:#223A83"/>
		</linearGradient>
		<polygon style="fill:url(#SVGID_00000085212592861054104490000005516597968051229088_);" points="471.6,265.3 470,265.8 
			470,262.5 		"/>
		
			<linearGradient id="SVGID_00000093895461216638477760000001308686472643412149_" gradientUnits="userSpaceOnUse" x1="471.6416" y1="266.4888" x2="475.989" y2="266.4888">
			<stop  offset="0" style="stop-color:#00A386"/>
			<stop  offset="6.023580e-02" style="stop-color:#009C8A"/>
			<stop  offset="0.3181" style="stop-color:#007D91"/>
			<stop  offset="0.5502" style="stop-color:#00628E"/>
			<stop  offset="0.7484" style="stop-color:#104D89"/>
			<stop  offset="0.9047" style="stop-color:#1F3F84"/>
			<stop  offset="1" style="stop-color:#223A83"/>
		</linearGradient>
		<path style="fill:url(#SVGID_00000093895461216638477760000001308686472643412149_);" d="M473.8,269l-2.2-3.7l4.3-1.3
			C475.3,265.7,474.6,267.3,473.8,269z"/>
	</g>
	
		<linearGradient id="SVGID_00000102528684527190405840000002307517526864784549_" gradientUnits="userSpaceOnUse" x1="470.0015" y1="260.0175" x2="471.6416" y2="260.0175">
		<stop  offset="0" style="stop-color:#00A386"/>
		<stop  offset="6.023580e-02" style="stop-color:#009C8A"/>
		<stop  offset="0.3181" style="stop-color:#007D91"/>
		<stop  offset="0.5502" style="stop-color:#00628E"/>
		<stop  offset="0.7484" style="stop-color:#104D89"/>
		<stop  offset="0.9047" style="stop-color:#1F3F84"/>
		<stop  offset="1" style="stop-color:#223A83"/>
	</linearGradient>
	<polygon style="fill:url(#SVGID_00000102528684527190405840000002307517526864784549_);" points="470,261.6 470,258.4 471.6,261.1 
			"/>
	
		<linearGradient id="SVGID_00000129897139625450641880000000091606233781910928_" gradientUnits="userSpaceOnUse" x1="470.0015" y1="260.0175" x2="471.6416" y2="260.0175">
		<stop  offset="0" style="stop-color:#00A386"/>
		<stop  offset="6.023580e-02" style="stop-color:#009C8A"/>
		<stop  offset="0.3181" style="stop-color:#007D91"/>
		<stop  offset="0.5502" style="stop-color:#00628E"/>
		<stop  offset="0.7484" style="stop-color:#104D89"/>
		<stop  offset="0.9047" style="stop-color:#1F3F84"/>
		<stop  offset="1" style="stop-color:#223A83"/>
	</linearGradient>
	<polygon style="fill:url(#SVGID_00000129897139625450641880000000091606233781910928_);" points="470,261.6 470,258.4 471.6,261.1 
			"/>
	
		<linearGradient id="SVGID_00000021811991890975808130000008407254373517110688_" gradientUnits="userSpaceOnUse" x1="84.3377" y1="77.7953" x2="216.8133" y2="77.7953">
		<stop  offset="0" style="stop-color:#00A386"/>
		<stop  offset="6.023580e-02" style="stop-color:#009C8A"/>
		<stop  offset="0.3181" style="stop-color:#007D91"/>
		<stop  offset="0.5502" style="stop-color:#00628E"/>
		<stop  offset="0.7484" style="stop-color:#104D89"/>
		<stop  offset="0.9047" style="stop-color:#1F3F84"/>
		<stop  offset="1" style="stop-color:#223A83"/>
	</linearGradient>
	<circle style="fill:url(#SVGID_00000021811991890975808130000008407254373517110688_);" cx="150.6" cy="77.8" r="66.2"/>
	
		<linearGradient id="SVGID_00000036240217930141523230000005083214652034420367_" gradientUnits="userSpaceOnUse" x1="272.5116" y1="77.7953" x2="404.9873" y2="77.7953">
		<stop  offset="0" style="stop-color:#00A386"/>
		<stop  offset="6.023580e-02" style="stop-color:#009C8A"/>
		<stop  offset="0.3181" style="stop-color:#007D91"/>
		<stop  offset="0.5502" style="stop-color:#00628E"/>
		<stop  offset="0.7484" style="stop-color:#104D89"/>
		<stop  offset="0.9047" style="stop-color:#1F3F84"/>
		<stop  offset="1" style="stop-color:#223A83"/>
	</linearGradient>
	<circle style="fill:url(#SVGID_00000036240217930141523230000005083214652034420367_);" cx="338.7" cy="77.8" r="66.2"/>
</g>
</svg>
