<?xml version="1.0" encoding="utf-8"?>
<!-- Generator: Adobe Illustrator 28.0.0, SVG Export Plug-In . SVG Version: 6.00 Build 0)  -->
<svg version="1.1" id="Laag_1" xmlns="http://www.w3.org/2000/svg" xmlns:xlink="http://www.w3.org/1999/xlink" x="0px" y="0px"
	 viewBox="0 0 709.9 373.4" style="enable-background:new 0 0 709.9 373.4;" xml:space="preserve">
<style type="text/css">
	.st0{fill:#014963;}
	.st1{fill:url(#SVGID_1_);}
	.st2{fill:url(#SVGID_00000086654279482465387170000001941620603268796331_);}
	.st3{fill:url(#SVGID_00000081623505897447789520000016188234546441319830_);}
	.st4{fill:url(#SVGID_00000043421409002126823320000004821363642321809852_);}
	.st5{fill:url(#SVGID_00000048474290502932295980000003337250348829931421_);}
	.st6{fill:url(#SVGID_00000144324492025333228870000002854042537072714420_);}
	.st7{fill:url(#SVGID_00000026877490319932133430000012222424821951100032_);}
	.st8{fill:url(#SVGID_00000021842132191166831540000008609756892401421729_);}
</style>
<g>
	<path class="st0" d="M70.9,289.5c10.1,0,15.8-5.2,15.8-18.5v-77.1h22.2v75.9c0,23.3-12.3,37.6-38,37.6c-8.7,0-16.1-2-27-7.9V279
		C52.5,284.2,61.9,289.5,70.9,289.5z"/>
	<path class="st0" d="M213.9,270.6h-62.7c2.2,13.8,11.6,20.8,28.7,20.8c11.8,0,18.5-2.4,30.4-7.4l-2.9,17.3
		c-6.2,2.7-15.5,6.7-31.7,6.7c-27,0-46.9-16.3-46.9-44.2c0-27.4,19.5-44.3,43.8-44.3c24.5,0,41.7,16.3,41.7,41.2
		C214.4,264.1,214.2,267.4,213.9,270.6z M151.4,256h42.2c-1.3-13.3-9.1-20-20.8-20C161.6,236,153.6,242.6,151.4,256z"/>
	<path class="st0" d="M225.5,222.3h14.3v-10.1c0-13.6,8.7-25.5,27.2-25.5c6.9,0,13.3,1.3,17.8,2.4l3,19c-7.2-2.7-13.1-4.2-17.5-4.2
		c-6.2,0-8.9,3.4-8.9,10.4v8.1h20v15.8h-20v67.4h-21.7v-67.4h-14.3V222.3z"/>
	<path class="st0" d="M289.5,222.3h14.3v-10.1c0-13.6,8.7-25.5,27.2-25.5c6.9,0,13.3,1.3,17.8,2.4l3,19c-7.2-2.7-13.1-4.2-17.5-4.2
		c-6.2,0-8.9,3.4-8.9,10.4v8.1h20v15.8h-20v67.4h-21.7v-67.4h-14.3V222.3z"/>
	<path class="st0" d="M359,249.5c0-36.1,22.8-58.6,54.8-58.6c31.9,0,54.8,22.5,54.8,58.6c0,36.3-23,59.1-54.8,59.1
		C382.4,308.6,359,285.8,359,249.5z M450.7,249.5c0-29.2-16-44.3-37-44.3c-20.8,0-36.8,15.1-36.8,44.3c0,29.4,15.6,44.8,36.8,44.8
		C434.6,294.3,450.7,278.9,450.7,249.5z"/>
	<path class="st0" d="M506.7,236c6-8.9,15.1-15.3,29.9-15.3c17.3,0,33.9,14.3,33.9,42.2c0,26.9-15.6,45-37.3,45
		c-13.4,0-21-5.9-25.9-9.7v40.6h-16.8V223.9l16.1-2.2V236z M529.8,294.3c13.1,0,23.3-12.1,23.3-30.4c0-20.2-9.9-29.6-23.2-29.6
		c-12.8,0-22.7,11.4-22.7,26.4v23.5C512.2,288.6,519.4,294.3,529.8,294.3z"/>
	<path class="st0" d="M590.1,303.4l-2.4-15.1c13.6,5.4,23.7,6.6,32.4,6.6c12.1,0,20.2-3.5,20.2-10.6c0-6.7-6.4-10.4-21.2-14.1
		c-22-5.4-31.1-12.4-31.1-26.2c0-14.1,12.8-23.3,34.9-23.3c12.3,0,22,2.7,28.4,4.4l2.4,14.9c-12.4-4.4-21.3-6.4-30.7-6.4
		c-11.1,0-17.8,3.5-17.8,9.6s5,9.1,21.2,13.1c22.3,5.4,31.1,13.8,31.1,27.4c0,15.1-13.3,24.5-35.1,24.5
		C608.4,308.1,597.9,305.4,590.1,303.4z"/>
</g>
<g>
	<g>
		<linearGradient id="SVGID_1_" gradientUnits="userSpaceOnUse" x1="485.3557" y1="154.9842" x2="654.5251" y2="154.9842">
			<stop  offset="0" style="stop-color:#00A386"/>
			<stop  offset="6.023580e-02" style="stop-color:#009C8A"/>
			<stop  offset="0.3181" style="stop-color:#007D91"/>
			<stop  offset="0.5502" style="stop-color:#00628E"/>
			<stop  offset="0.7484" style="stop-color:#104D89"/>
			<stop  offset="0.9047" style="stop-color:#1F3F84"/>
			<stop  offset="1" style="stop-color:#223A83"/>
		</linearGradient>
		<path class="st1" d="M570.6,205.9h-14.9l-7-26.4h-0.3c6.5-5.5,11.6-12.9,14.5-21.3h36.2c8.6,0,15.6-7.4,15.6-16.4
			c0-9.1-7-16.4-15.6-16.4l-77.8,0c-8.6,0-15.6,7.4-15.6,16.4c0,2,0.4,4,1,5.8h-20.9c-0.3-1.9-0.4-3.8-0.4-5.8
			c0-20.8,16.1-37.7,35.9-37.7l77.8,0c15,0,27.8,9.7,33.2,23.4l22.3,6.5v15.6l-22.3,6.5l-2.1,0.6l-0.8-1.3v1.6l0.8-0.2l1.1,1.8
			l12,20l-10,11.6l-23.3-12.3h0c-0.6,0.2-1.1,0.4-1.7,0.5l-3.6,24.4l-14.8,1.8l-9.8-25.1h-2.1L570.6,205.9z"/>
		
			<linearGradient id="SVGID_00000009547708377750857010000008020925407266535840_" gradientUnits="userSpaceOnUse" x1="405.8701" y1="141.7838" x2="555.4833" y2="141.7838">
			<stop  offset="0" style="stop-color:#00A386"/>
			<stop  offset="6.023580e-02" style="stop-color:#009C8A"/>
			<stop  offset="0.3181" style="stop-color:#007D91"/>
			<stop  offset="0.5502" style="stop-color:#00628E"/>
			<stop  offset="0.7484" style="stop-color:#104D89"/>
			<stop  offset="0.9047" style="stop-color:#1F3F84"/>
			<stop  offset="1" style="stop-color:#223A83"/>
		</linearGradient>
		<path style="fill:url(#SVGID_00000009547708377750857010000008020925407266535840_);" d="M519.6,179.5l-77.8,0
			c-19.8,0-35.9-16.9-35.9-37.7c0-20.8,16.1-37.7,35.9-37.7l50.7,0c-6.5,5.5-11.6,12.9-14.5,21.3l-36.2,0c-8.6,0-15.6,7.4-15.6,16.4
			c0,9,7,16.4,15.6,16.4l77.8,0c8.6,0,15.6-7.4,15.6-16.4c0-2-0.4-4-1-5.8l20.9,0c0.3,1.9,0.4,3.8,0.4,5.8
			C555.5,162.6,539.4,179.5,519.6,179.5z"/>
		
			<linearGradient id="SVGID_00000122706151404622730970000006375742105533778879_" gradientUnits="userSpaceOnUse" x1="629.3414" y1="156.1922" x2="630.1435" y2="156.1922">
			<stop  offset="0" style="stop-color:#00A386"/>
			<stop  offset="6.023580e-02" style="stop-color:#009C8A"/>
			<stop  offset="0.3181" style="stop-color:#007D91"/>
			<stop  offset="0.5502" style="stop-color:#00628E"/>
			<stop  offset="0.7484" style="stop-color:#104D89"/>
			<stop  offset="0.9047" style="stop-color:#1F3F84"/>
			<stop  offset="1" style="stop-color:#223A83"/>
		</linearGradient>
		<polygon style="fill:url(#SVGID_00000122706151404622730970000006375742105533778879_);" points="630.1,156.7 629.3,157 
			629.3,155.4 		"/>
		
			<linearGradient id="SVGID_00000057835294299355132580000013331547997876117650_" gradientUnits="userSpaceOnUse" x1="630.1435" y1="157.3401" x2="632.2697" y2="157.3401">
			<stop  offset="0" style="stop-color:#00A386"/>
			<stop  offset="6.023580e-02" style="stop-color:#009C8A"/>
			<stop  offset="0.3181" style="stop-color:#007D91"/>
			<stop  offset="0.5502" style="stop-color:#00628E"/>
			<stop  offset="0.7484" style="stop-color:#104D89"/>
			<stop  offset="0.9047" style="stop-color:#1F3F84"/>
			<stop  offset="1" style="stop-color:#223A83"/>
		</linearGradient>
		<path style="fill:url(#SVGID_00000057835294299355132580000013331547997876117650_);" d="M631.2,158.6l-1.1-1.8l2.1-0.6
			C632,157,631.6,157.8,631.2,158.6z"/>
	</g>
	
		<linearGradient id="SVGID_00000132782969867276316220000012561596910241154448_" gradientUnits="userSpaceOnUse" x1="629.3414" y1="154.1751" x2="630.1435" y2="154.1751">
		<stop  offset="0" style="stop-color:#00A386"/>
		<stop  offset="6.023580e-02" style="stop-color:#009C8A"/>
		<stop  offset="0.3181" style="stop-color:#007D91"/>
		<stop  offset="0.5502" style="stop-color:#00628E"/>
		<stop  offset="0.7484" style="stop-color:#104D89"/>
		<stop  offset="0.9047" style="stop-color:#1F3F84"/>
		<stop  offset="1" style="stop-color:#223A83"/>
	</linearGradient>
	<polygon style="fill:url(#SVGID_00000132782969867276316220000012561596910241154448_);" points="629.3,155 629.3,153.4 
		630.1,154.7 	"/>
	
		<linearGradient id="SVGID_00000016791764689902713720000012091617184971615676_" gradientUnits="userSpaceOnUse" x1="629.3414" y1="154.1751" x2="630.1435" y2="154.1751">
		<stop  offset="0" style="stop-color:#00A386"/>
		<stop  offset="6.023580e-02" style="stop-color:#009C8A"/>
		<stop  offset="0.3181" style="stop-color:#007D91"/>
		<stop  offset="0.5502" style="stop-color:#00628E"/>
		<stop  offset="0.7484" style="stop-color:#104D89"/>
		<stop  offset="0.9047" style="stop-color:#1F3F84"/>
		<stop  offset="1" style="stop-color:#223A83"/>
	</linearGradient>
	<polygon style="fill:url(#SVGID_00000016791764689902713720000012091617184971615676_);" points="629.3,155 629.3,153.4 
		630.1,154.7 	"/>
	
		<linearGradient id="SVGID_00000072266722756496366490000007398300527456109442_" gradientUnits="userSpaceOnUse" x1="440.7233" y1="65.0551" x2="505.5137" y2="65.0551">
		<stop  offset="0" style="stop-color:#00A386"/>
		<stop  offset="6.023580e-02" style="stop-color:#009C8A"/>
		<stop  offset="0.3181" style="stop-color:#007D91"/>
		<stop  offset="0.5502" style="stop-color:#00628E"/>
		<stop  offset="0.7484" style="stop-color:#104D89"/>
		<stop  offset="0.9047" style="stop-color:#1F3F84"/>
		<stop  offset="1" style="stop-color:#223A83"/>
	</linearGradient>
	<circle style="fill:url(#SVGID_00000072266722756496366490000007398300527456109442_);" cx="473.1" cy="65.1" r="32.4"/>
	
		<linearGradient id="SVGID_00000036252428194132142100000008482999840509083309_" gradientUnits="userSpaceOnUse" x1="532.7543" y1="65.0551" x2="597.5446" y2="65.0551">
		<stop  offset="0" style="stop-color:#00A386"/>
		<stop  offset="6.023580e-02" style="stop-color:#009C8A"/>
		<stop  offset="0.3181" style="stop-color:#007D91"/>
		<stop  offset="0.5502" style="stop-color:#00628E"/>
		<stop  offset="0.7484" style="stop-color:#104D89"/>
		<stop  offset="0.9047" style="stop-color:#1F3F84"/>
		<stop  offset="1" style="stop-color:#223A83"/>
	</linearGradient>
	<circle style="fill:url(#SVGID_00000036252428194132142100000008482999840509083309_);" cx="565.1" cy="65.1" r="32.4"/>
</g>
</svg>
